<?xml version="1.0" encoding="utf-8"?>
<!-- Generator: Adobe Illustrator 27.5.0, SVG Export Plug-In . SVG Version: 6.00 Build 0)  -->
<svg version="1.1" id="Capa_1" xmlns="http://www.w3.org/2000/svg" xmlns:xlink="http://www.w3.org/1999/xlink" x="0px" y="0px"
	 viewBox="0 0 2338 1926" style="enable-background:new 0 0 2338 1926;" xml:space="preserve">
<g>
	<path style="fill:#E95050;" d="M2250.913,838.289l-149.016-51.119v-67.223c0-26.703-21.647-48.35-48.349-48.35h-298.943V589.93
		h22.934v-297.72H642.579v297.72h21.958v81.666H551.339v-14.931c0-1.011-0.572-1.971-1.544-2.857v-8.173
		c0-3.972-1.072-15.202-19.857-15.202s-19.858,11.229-19.858,15.202v8.173c-0.972,0.885-1.543,1.846-1.543,2.857v14.931h-27.928
		c-21.656,0-40.67,14.4-46.54,35.246l-120.136,348.442l-179.135,101.12c-23.639,13.343-38.258,38.385-38.258,65.529v243.35H86.086
		v53.778h86.564c4.734,28.796,18.44,54.571,38.189,74.322c0.076,0.074,0.157,0.145,0.232,0.22c4.151,4.132,8.58,7.98,13.232,11.553
		c23.046,17.71,51.879,28.261,83.19,28.261h49.979c58.636,0,108.615-36.937,128.026-88.799l199.201,0.072
		c6.917,18.45,17.688,35.018,31.36,48.692c0.076,0.074,0.158,0.145,0.234,0.22c4.15,4.132,8.581,7.98,13.231,11.553
		c23.047,17.71,51.88,28.261,83.191,28.261h49.978c77.147,0,139.367-63.911,136.601-141.674c-0.32-9.026-1.554-17.802-3.581-26.266
		h175.022c-2.354,10.047-3.69,20.486-3.69,31.251c0,37.746,15.301,71.918,40.035,96.654c0.076,0.074,0.156,0.145,0.232,0.22
		c4.151,4.132,8.581,7.98,13.232,11.553c23.046,17.71,51.879,28.261,83.19,28.261h49.979c58.636,0,108.615-36.937,128.026-88.799
		l199.201,0.072c6.918,18.45,17.688,35.018,31.362,48.692c0.076,0.074,0.156,0.145,0.232,0.22c4.151,4.132,8.581,7.98,13.232,11.553
		c23.046,17.71,51.879,28.261,83.19,28.261h49.979c77.146,0,139.366-63.911,136.601-141.674c-0.322-9.026-1.556-17.802-3.583-26.266
		h109.946V912.703c2.68,0.849,5.531,1.313,8.492,1.313c15.521,0,28.105-12.583,28.105-28.105c0,15.522,12.583,28.105,28.106,28.105
		c15.521,0,28.105-12.583,28.105-28.105c0,15.522,12.582,28.105,28.104,28.105s28.105-12.583,28.105-28.105v-47.622H2250.913z
		 M1714.892,671.596H863.589v-14.931c0-1.011-0.572-1.971-1.545-2.857v-8.173c0-3.972-1.072-15.202-19.857-15.202
		c-18.786,0-19.858,11.229-19.858,15.202v8.173c-0.972,0.885-1.544,1.846-1.544,2.857v14.931H704.251V589.93h1010.64V671.596z"/>
	<g>
		<path style="fill:#E34746;" d="M2250.914,838.289l-149.016-51.119v-67.224c0-26.702-21.646-48.349-48.349-48.349H932.814
			c-21.656,0-40.671,14.4-46.54,35.247l-120.137,348.442l-179.135,101.12c-23.638,13.343-38.258,38.384-38.258,65.529v243.546
			h130.924c15.353-87.198,91.424-153.467,183.025-153.467c91.6,0,167.673,66.269,183.025,153.467h630.19
			c15.353-87.198,91.425-153.467,183.025-153.467c91.601,0,167.673,66.269,183.026,153.467h59.94V912.703
			c2.68,0.849,5.531,1.313,8.492,1.313c15.522,0,28.105-12.583,28.105-28.105c0,15.522,12.583,28.105,28.106,28.105
			c15.521,0,28.105-12.583,28.105-28.105c0,15.522,12.581,28.105,28.104,28.105c15.522,0,28.105-12.583,28.105-28.105
			L2250.914,838.289L2250.914,838.289z"/>
	</g>
	<g>
		<path style="fill:#212136;" d="M1995.143,1485.342c0-0.002,0-0.004,0-0.006c-0.259-3.076-0.652-6.111-1.117-9.122
			c-0.1-0.651-0.207-1.299-0.317-1.947c-0.502-2.96-1.065-5.899-1.758-8.787h0.001c-14.614-60.99-71.209-105.44-136.294-105.44
			h-46.703c-2.394,0-4.773,0.065-7.137,0.186c-0.505,0.026-1.002,0.083-1.506,0.114c-1.867,0.116-3.73,0.246-5.575,0.436
			c-0.424,0.044-0.841,0.114-1.265,0.161c-1.921,0.217-3.835,0.453-5.73,0.748c-0.308,0.049-0.611,0.114-0.919,0.165
			c-2.011,0.328-4.013,0.686-5.994,1.1c-0.156,0.032-0.308,0.074-0.462,0.107c-2.129,0.453-4.238,0.95-6.327,1.501
			c-0.053,0.014-0.103,0.03-0.156,0.043c-48.557,12.856-86.432,51.786-97.93,100.878c0.001-0.002,0.001-0.004,0.002-0.007
			c0,0.003,0,0.005,0,0.007h-505.221c-2.354,10.046-3.69,20.486-3.69,31.25c0,37.746,15.301,71.918,40.036,96.654
			c0.076,0.075,0.156,0.146,0.232,0.222c4.152,4.131,8.581,7.979,13.232,11.553c23.046,17.709,51.879,28.261,83.191,28.261h49.979
			c58.636,0,108.615-36.937,128.026-88.799l199.201,0.073c6.918,18.45,17.687,35.017,31.362,48.691
			c0.076,0.075,0.156,0.146,0.231,0.222c4.151,4.131,8.581,7.979,13.232,11.553c23.046,17.709,51.879,28.261,83.191,28.261h49.979
			c77.146,0,139.365-63.911,136.601-141.674C1995.457,1489.595,1995.321,1487.462,1995.143,1485.342z"/>
	</g>
	<g>
		<path style="fill:#DF3F41;" d="M886.274,706.843c5.869-20.846,24.884-35.246,46.54-35.246H480.608
			c-21.656,0-40.67,14.401-46.54,35.246l-119.894,348.442h451.963L886.274,706.843z"/>
	</g>
	<g>
		<path style="fill:#E34746;" d="M886.274,706.843c5.869-20.843,24.88-35.243,46.533-35.246H480.608
			c-21.656,0-40.67,14.401-46.54,35.246l-9.688,28.1h452.206L886.274,706.843z"/>
	</g>
	<g>
		<path style="fill:#E95050;" d="M890.427,696.743c8.342-15.242,24.441-25.144,42.38-25.146H480.608
			c-17.941,0-34.044,9.902-42.387,25.146H890.427z"/>
	</g>
	<g>
		<path style="fill:#212136;" d="M997.433,1474.05c-0.123-0.721-0.218-1.451-0.352-2.168c-0.08-0.424-0.186-0.839-0.27-1.261
			c-0.342-1.722-0.693-3.443-1.099-5.141h0c-0.001-0.002-0.001-0.004-0.001-0.005c-14.616-60.987-71.209-105.434-136.293-105.434
			h-46.702c-2.394,0-4.773,0.065-7.137,0.186c-0.506,0.026-1.003,0.083-1.506,0.114c-1.867,0.116-3.73,0.246-5.576,0.436
			c-0.424,0.044-0.841,0.114-1.265,0.161c-1.92,0.217-3.834,0.453-5.729,0.748c-0.309,0.049-0.611,0.114-0.919,0.165
			c-2.011,0.328-4.013,0.686-5.994,1.1c-0.156,0.032-0.308,0.074-0.461,0.107c-2.129,0.453-4.238,0.95-6.328,1.501
			c-0.052,0.014-0.103,0.03-0.156,0.043c-48.557,12.856-86.432,51.786-97.93,100.878c0-0.002,0.002-0.004,0.002-0.007
			c-0.001,0.003-0.001,0.005-0.001,0.007h-7.136l-27.615,53.901l-472.314-0.318c4.734,28.797,18.44,54.572,38.189,74.322
			c0.076,0.075,0.156,0.146,0.232,0.222c4.151,4.131,8.581,7.979,13.232,11.553c23.046,17.709,51.879,28.261,83.19,28.261h49.98
			c58.635,0,108.615-36.937,128.025-88.799l199.201,0.073c6.917,18.45,17.687,35.017,31.361,48.691
			c0.076,0.075,0.157,0.146,0.232,0.222c4.151,4.131,8.581,7.979,13.231,11.553c23.046,17.709,51.88,28.261,83.191,28.261h49.979
			c74.827,0,135.604-60.127,136.668-134.702c0.033-2.311,0.016-4.635-0.068-6.973
			C999.079,1485.725,998.424,1479.828,997.433,1474.05z"/>
		<path style="fill:#2D2F49;" d="M1305.684,1496.73c0-11.959,4.411-22.855,11.646-31.25h-96.676
			c-2.35,10.041-3.632,20.493-3.632,31.251c0,75.491,61.198,136.69,136.69,136.69c58.639,0,108.636-36.934,128.044-88.8
			l-131.73-0.048C1325.229,1542.684,1305.684,1522.011,1305.684,1496.73z"/>
		<path style="fill:#D5D2DD;" d="M1305.684,1496.73c0-11.959,4.411-22.855,11.646-31.25h-35.304
			c-4.181,9.577-6.534,20.133-6.534,31.251c0,43.2,35.021,78.221,78.221,78.221c25.148,0,47.463-11.916,61.773-30.356l-65.459-0.023
			C1325.229,1542.684,1305.684,1522.011,1305.684,1496.73z"/>
		<path style="fill:#AEA5AC;" d="M1305.684,1496.73c0-11.959,4.411-22.855,11.646-31.25h-29.893
			c-4.484,9.491-7.066,20.057-7.066,31.251c0,40.505,32.836,73.341,73.341,73.341c22.195,0,42.043-9.899,55.492-25.478
			l-59.178-0.021C1325.229,1542.684,1305.684,1522.011,1305.684,1496.73z"/>
		<path style="fill:#2D2F49;" d="M314.972,1519.063h-92.345c10.664,64.864,66.962,114.358,134.845,114.358
			c58.639,0,108.635-36.934,128.043-88.8l-131.73-0.048C336.905,1543.286,322.476,1533.286,314.972,1519.063z"/>
		<path style="fill:#D5D2DD;" d="M314.972,1519.063h-32.443c9.616,32.312,39.508,55.889,74.943,55.889
			c25.147,0,47.463-11.916,61.772-30.356l-65.458-0.023C336.905,1543.286,322.476,1533.286,314.972,1519.063z"/>
		<path style="fill:#AEA5AC;" d="M314.972,1519.063h-27.353c9.45,29.579,37.139,51.009,69.853,51.009
			c22.194,0,42.043-9.899,55.491-25.478l-59.178-0.021C336.905,1543.286,322.476,1533.286,314.972,1519.063z"/>
		<g>
			<g>
				<path style="fill:#C6BBC3;" d="M1389.191,1544.587c-11.392,13.163-27.381,22.245-45.488,24.723
					c3.281,0.449,6.605,0.762,10.009,0.762c22.195,0,42.043-9.899,55.492-25.478L1389.191,1544.587z"/>
			</g>
		</g>
		<g>
			<g>
				<path style="fill:#C6BBC3;" d="M392.95,1544.587c-11.392,13.163-27.381,22.245-45.487,24.723
					c3.281,0.449,6.604,0.762,10.009,0.762c22.194,0,42.043-9.899,55.491-25.478L392.95,1544.587z"/>
			</g>
		</g>
	</g>
	<g>
		<path style="fill:#E95050;" d="M2101.897,734.943v-14.998c0-26.702-21.646-48.349-48.349-48.349H932.813
			c-21.656,0-40.67,14.4-46.54,35.245l-9.688,28.101H2101.897z"/>
	</g>
	<g>
		<g>
			<path style="fill:#B6B0BA;" d="M618.792,1205.409c0,0,0.679,0-3.201,0c-17.45,0-31.595,14.146-31.595,31.595
				s14.146,31.595,31.595,31.595h3.201c17.449,0,31.595-14.145,31.595-31.595S636.241,1205.409,618.792,1205.409z"/>
		</g>
		<g>
			<path style="fill:#C6BBC3;" d="M587.197,1237.005c0,17.449,14.145,31.595,31.595,31.595s31.595-14.146,31.595-31.595
				c0-17.45-14.145-31.595-31.595-31.595S587.197,1219.555,587.197,1237.005z"/>
		</g>
		<g>
			<circle style="fill:#363857;" cx="618.792" cy="1237.005" r="22.642"/>
		</g>
		<g>
			<path style="fill:#EF7A39;" d="M625.949,1217.147c-0.079,0-0.149,0.022-0.227,0.023c-0.798-0.005-3.758-0.023-6.93-0.023
				c-10.967,0-19.857,8.89-19.857,19.858c0,10.967,8.891,19.858,19.857,19.858l6.36-0.081c0.27,0.011,0.524,0.081,0.797,0.081
				c10.966,0,19.857-8.891,19.857-19.858C645.806,1226.037,636.915,1217.147,625.949,1217.147z"/>
		</g>
		<g>
			<path style="fill:#F4963C;" d="M606.091,1237.005c0,10.967,8.891,19.857,19.858,19.857c10.967,0,19.857-8.89,19.857-19.857
				c0-10.967-8.89-19.858-19.857-19.858C614.982,1217.147,606.091,1226.037,606.091,1237.005z"/>
		</g>
		<g>
			<path style="fill:#F8AC36;" d="M614.681,1233.893c0,8.004,6.489,14.493,14.494,14.493c8.004,0,14.494-6.489,14.494-14.493
				c0-8.005-6.49-14.494-14.494-14.494C621.17,1219.399,614.681,1225.888,614.681,1233.893z"/>
		</g>
	</g>
	<g>
		<path style="fill:#DF3F41;" d="M535.617,1221.934v-4.107c0-6.515-4.651-11.797-10.389-11.797h-43.48
			c-5.738,0-10.39,5.281-10.39,11.797v4.107H173.309v-4.107c0-6.515-4.652-11.797-10.389-11.797h-43.48
			c-5.738,0-10.389,5.281-10.389,11.797v4.107H96.537v243.546h452.206v-243.546H535.617z"/>
		<path style="fill:#EB6464;" d="M137.551,1154.849l-2.756,1.556c-23.639,13.343-38.259,38.384-38.259,65.529h12.513v-4.107
			c0-6.515,4.652-11.797,10.389-11.797h43.48c5.738,0,10.389,5.281,10.389,11.797v4.107h298.049v-4.107
			c0-6.515,4.651-11.797,10.39-11.797h43.48c5.738,0,10.389,5.281,10.389,11.797v4.107h13.126l0,0
			c0-27.145,14.62-52.186,38.258-65.529l2.756-1.556H137.551z"/>
	</g>
	<g>
		<path style="fill:#EB6464;" d="M2095.967,696.743c-8.213-14.983-24.126-25.146-42.418-25.146H932.813
			c-17.942,0-34.045,9.902-42.387,25.146H2095.967z"/>
	</g>
	<g>
		<g>
			<g>
				<g>
					<path style="fill:#363857;" d="M140.853,1303.11c-2.935,0-5.65,1.375-7.984,3.639c-5.946,2.244-10.383,10.683-10.383,20.815
						c0,10.132,4.437,18.572,10.384,20.815c2.334,2.264,5.049,3.639,7.983,3.639c8.502,0,15.394-10.949,15.394-24.454
						C156.247,1314.06,149.355,1303.11,140.853,1303.11z"/>
				</g>
				<g>
					<path style="fill:#EF7A39;" d="M135.987,1306.119c0.053,0,0.102,0.024,0.154,0.025c0.542-0.006,2.555-0.025,4.712-0.025
						c7.456,0,13.501,9.601,13.501,21.446c0,11.844-6.044,21.446-13.501,21.446l-4.324-0.087c-0.184,0.012-0.356,0.087-0.542,0.087
						c-7.456,0-13.501-9.602-13.501-21.446C122.486,1315.72,128.531,1306.119,135.987,1306.119z"/>
				</g>
				<g>
					<path style="fill:#F4963C;" d="M149.488,1327.565c0,11.844-6.044,21.446-13.501,21.446c-7.456,0-13.501-9.602-13.501-21.446
						c0-11.845,6.045-21.446,13.501-21.446C143.443,1306.119,149.488,1315.72,149.488,1327.565z"/>
				</g>
				<g>
					<ellipse style="fill:#F8AC36;" cx="133.794" cy="1324.204" rx="9.854" ry="15.653"/>
				</g>
			</g>
			<g>
				<g>
					<path style="fill:#EF7A39;" d="M131.688,1214.205c0.097,0,0.186,0.046,0.283,0.048c0.995-0.012,4.688-0.048,8.645-0.048
						c13.68,0,24.77,18.602,24.77,41.55c0,22.947-11.09,41.55-24.77,41.55l-7.933-0.168c-0.337,0.023-0.653,0.168-0.994,0.168
						c-13.68,0-24.77-18.603-24.77-41.55C106.918,1232.807,118.009,1214.205,131.688,1214.205z"/>
				</g>
				<g>
					<ellipse style="fill:#F4963C;" cx="131.689" cy="1255.755" rx="24.77" ry="41.55"/>
				</g>
				<g>
					<path style="fill:#F8AC36;" d="M145.745,1249.244c0,16.749-8.094,30.327-18.079,30.327s-18.079-13.578-18.079-30.327
						c0-16.749,8.094-30.326,18.079-30.326S145.745,1232.495,145.745,1249.244z"/>
				</g>
			</g>
		</g>
		<g>
			<g>
				<path style="fill:#E2CCD0;" d="M525.228,1206.031h-43.48c-5.738,0-10.389,5.281-10.389,11.797v21.11
					c-1.36,5.145-2.132,10.827-2.132,16.818s0.772,11.673,2.132,16.818v77.942c0,6.515,4.651,11.797,10.389,11.797h43.48
					c5.738,0,10.389-5.281,10.389-11.797v-132.687C535.617,1211.312,530.965,1206.031,525.228,1206.031z"/>
			</g>
			<g>
				<g>
					<g>
						<path style="fill:#363857;" d="M503.161,1303.11c-2.935,0-5.65,1.375-7.984,3.639c-5.946,2.244-10.383,10.683-10.383,20.815
							c0,10.132,4.437,18.572,10.384,20.815c2.334,2.264,5.048,3.639,7.983,3.639c8.502,0,15.394-10.949,15.394-24.454
							C518.555,1314.06,511.663,1303.11,503.161,1303.11z"/>
					</g>
					<g>
						<path style="fill:#EF7A39;" d="M498.295,1306.119c0.053,0,0.101,0.024,0.154,0.025c0.542-0.006,2.555-0.025,4.712-0.025
							c7.456,0,13.501,9.601,13.501,21.446c0,11.844-6.044,21.446-13.501,21.446l-4.324-0.087c-0.184,0.012-0.356,0.087-0.542,0.087
							c-7.456,0-13.501-9.602-13.501-21.446C484.794,1315.72,490.839,1306.119,498.295,1306.119z"/>
					</g>
					<g>
						<path style="fill:#F4963C;" d="M511.796,1327.565c0,11.844-6.045,21.446-13.501,21.446c-7.456,0-13.501-9.602-13.501-21.446
							c0-11.845,6.045-21.446,13.501-21.446C505.751,1306.119,511.796,1315.72,511.796,1327.565z"/>
					</g>
					<g>
						<ellipse style="fill:#F8AC36;" cx="496.102" cy="1324.204" rx="9.854" ry="15.653"/>
					</g>
				</g>
				<g>
					<g>
						<path style="fill:#EF7A39;" d="M493.996,1214.205c0.098,0,0.186,0.046,0.283,0.048c0.995-0.012,4.688-0.048,8.645-0.048
							c13.681,0,24.77,18.602,24.77,41.55c0,22.947-11.089,41.55-24.77,41.55l-7.933-0.168c-0.337,0.023-0.654,0.168-0.995,0.168
							c-13.68,0-24.77-18.603-24.77-41.55C469.226,1232.807,480.316,1214.205,493.996,1214.205z"/>
					</g>
					<g>
						<path style="fill:#F4963C;" d="M518.767,1255.755c0,22.948-11.09,41.55-24.77,41.55c-13.68,0-24.771-18.602-24.771-41.55
							c0-22.948,11.09-41.55,24.771-41.55C507.677,1214.205,518.767,1232.807,518.767,1255.755z"/>
					</g>
					<g>
						<path style="fill:#F8AC36;" d="M508.052,1249.244c0,16.749-8.094,30.327-18.079,30.327s-18.079-13.578-18.079-30.327
							c0-16.749,8.094-30.326,18.079-30.326S508.052,1232.495,508.052,1249.244z"/>
					</g>
				</g>
			</g>
		</g>
	</g>
	<path style="fill:#C23838;" d="M188.6,1465.48h4.705v-12.827h259.1v12.827h4.705v-12.827h91.633c1.3,0,2.352-1.052,2.352-2.352
		c0-1.3-1.052-2.353-2.352-2.353H457.11v-226.013c0-26.25,14.202-50.574,37.061-63.481l179.136-101.119
		c0.765-0.431,1.159-1.23,1.161-2.049h-7.103l-175.505,99.07c-24.336,13.74-39.455,39.634-39.455,67.579v165.296h-259.1v-165.296
		c0-26.25,14.202-50.574,37.061-63.481l179.135-101.119c0.765-0.431,1.16-1.23,1.161-2.049h-7.103l-175.505,99.07
		c-24.336,13.74-39.455,39.634-39.455,67.579v226.013H96.537v4.705H188.6V1465.48z M193.305,1391.935h259.1v56.012h-259.1V1391.935z
		"/>
	<g>
		<g>
			<path style="fill:#E2CCD0;" d="M201.815,1243.546v91.026c0,6.11,4.953,11.063,11.063,11.063h219.524
				c6.11,0,11.063-4.953,11.063-11.063v-91.026c0-6.11-4.953-11.063-11.063-11.063H212.878
				C206.768,1232.483,201.815,1237.435,201.815,1243.546z"/>
		</g>
		<path style="fill:#D2B2AE;" d="M435.278,1260.383c0-0.397-0.123-0.755-0.297-1.084v-9.728c0.174-0.329,0.297-0.686,0.297-1.083
			c0-0.633-0.257-1.202-0.662-1.626c-1.159-4.17-5.207-7.265-10.067-7.265H217.537c-4.833,0-8.859,3.061-10.045,7.196
			c-0.446,0.43-0.729,1.026-0.729,1.694c0,0.426,0.143,0.805,0.342,1.15v9.596c-0.198,0.345-0.342,0.724-0.342,1.15
			s0.143,0.805,0.342,1.15v9.594c-0.198,0.345-0.342,0.724-0.342,1.15c0,0.426,0.143,0.805,0.342,1.15v9.596
			c-0.198,0.345-0.342,0.723-0.342,1.15c0,0.426,0.143,0.805,0.342,1.15v9.594c-0.198,0.345-0.342,0.723-0.342,1.15
			c0,0.426,0.143,0.805,0.342,1.15v9.594c-0.198,0.345-0.342,0.724-0.342,1.15c0,0.426,0.143,0.805,0.342,1.15v9.596
			c-0.198,0.345-0.342,0.724-0.342,1.15c0,0.427,0.143,0.805,0.342,1.15v7.844c0,0.516,0.08,1.013,0.163,1.507
			c-0.296,0.394-0.505,0.861-0.505,1.393c0,1.172,0.872,2.102,1.993,2.285c1.853,2.691,5.082,4.487,8.781,4.487h207.011
			c3.703,0,6.936-1.801,8.787-4.497c1.096-0.204,1.942-1.121,1.942-2.275c0-0.507-0.195-0.951-0.467-1.336
			c0.091-0.512,0.17-1.028,0.17-1.564v-7.91c0.174-0.329,0.297-0.687,0.297-1.084s-0.123-0.755-0.297-1.083v-9.728
			c0.174-0.329,0.297-0.687,0.297-1.084s-0.123-0.755-0.297-1.084v-9.726c0.174-0.329,0.297-0.686,0.297-1.084
			c0-0.397-0.123-0.755-0.297-1.084v-9.726c0.174-0.329,0.297-0.686,0.297-1.083c0-0.398-0.123-0.755-0.297-1.084v-9.728
			c0.174-0.329,0.297-0.687,0.297-1.084c0-0.397-0.123-0.755-0.297-1.084v-9.726C435.155,1261.138,435.278,1260.78,435.278,1260.383
			z"/>
		<g>
			<path style="fill:#33363F;" d="M230.938,1250.846h-21.816c-1.303,0-2.359-1.056-2.359-2.359s1.057-2.359,2.359-2.359h21.816
				c1.303,0,2.359,1.057,2.359,2.359S232.241,1250.846,230.938,1250.846z"/>
		</g>
		<g>
			<path style="fill:#33363F;" d="M259.793,1250.846h-21.818c-1.303,0-2.359-1.056-2.359-2.359s1.057-2.359,2.359-2.359h21.818
				c1.303,0,2.359,1.057,2.359,2.359S261.096,1250.846,259.793,1250.846z"/>
		</g>
		<g>
			<path style="fill:#33363F;" d="M288.648,1250.846H266.83c-1.303,0-2.359-1.056-2.359-2.359s1.057-2.359,2.359-2.359h21.818
				c1.303,0,2.359,1.057,2.359,2.359S289.951,1250.846,288.648,1250.846z"/>
		</g>
		<g>
			<path style="fill:#33363F;" d="M317.501,1250.846h-21.816c-1.303,0-2.36-1.056-2.36-2.359s1.057-2.359,2.36-2.359h21.816
				c1.303,0,2.359,1.057,2.359,2.359S318.803,1250.846,317.501,1250.846z"/>
		</g>
		<g>
			<path style="fill:#33363F;" d="M346.356,1250.846h-21.818c-1.303,0-2.36-1.056-2.36-2.359s1.057-2.359,2.36-2.359h21.818
				c1.303,0,2.36,1.057,2.36,2.359S347.658,1250.846,346.356,1250.846z"/>
		</g>
		<g>
			<path style="fill:#33363F;" d="M375.211,1250.846h-21.818c-1.303,0-2.36-1.056-2.36-2.359s1.057-2.359,2.36-2.359h21.818
				c1.303,0,2.36,1.057,2.36,2.359S376.513,1250.846,375.211,1250.846z"/>
		</g>
		<g>
			<path style="fill:#33363F;" d="M404.063,1250.846h-21.818c-1.303,0-2.36-1.056-2.36-2.359s1.057-2.359,2.36-2.359h21.818
				c1.303,0,2.36,1.057,2.36,2.359S405.366,1250.846,404.063,1250.846z"/>
		</g>
		<g>
			<path style="fill:#33363F;" d="M432.919,1250.846H411.1c-1.303,0-2.359-1.056-2.359-2.359s1.056-2.359,2.359-2.359h21.819
				c1.303,0,2.359,1.057,2.359,2.359S434.221,1250.846,432.919,1250.846z"/>
		</g>
		<g>
			<path style="fill:#33363F;" d="M230.938,1262.743h-21.816c-1.303,0-2.359-1.057-2.359-2.36s1.057-2.359,2.359-2.359h21.816
				c1.303,0,2.359,1.057,2.359,2.359S232.241,1262.743,230.938,1262.743z"/>
		</g>
		<g>
			<path style="fill:#33363F;" d="M259.793,1262.743h-21.818c-1.303,0-2.359-1.057-2.359-2.36s1.057-2.359,2.359-2.359h21.818
				c1.303,0,2.359,1.057,2.359,2.359S261.096,1262.743,259.793,1262.743z"/>
		</g>
		<g>
			<path style="fill:#33363F;" d="M288.648,1262.743H266.83c-1.303,0-2.359-1.057-2.359-2.36s1.057-2.359,2.359-2.359h21.818
				c1.303,0,2.359,1.057,2.359,2.359S289.951,1262.743,288.648,1262.743z"/>
		</g>
		<g>
			<path style="fill:#33363F;" d="M317.501,1262.743h-21.816c-1.303,0-2.36-1.057-2.36-2.36s1.057-2.359,2.36-2.359h21.816
				c1.303,0,2.359,1.057,2.359,2.359S318.803,1262.743,317.501,1262.743z"/>
		</g>
		<g>
			<path style="fill:#33363F;" d="M346.356,1262.743h-21.818c-1.303,0-2.36-1.057-2.36-2.36s1.057-2.359,2.36-2.359h21.818
				c1.303,0,2.36,1.057,2.36,2.359S347.658,1262.743,346.356,1262.743z"/>
		</g>
		<g>
			<path style="fill:#33363F;" d="M375.211,1262.743h-21.818c-1.303,0-2.36-1.057-2.36-2.36s1.057-2.359,2.36-2.359h21.818
				c1.303,0,2.36,1.057,2.36,2.359S376.513,1262.743,375.211,1262.743z"/>
		</g>
		<g>
			<path style="fill:#33363F;" d="M404.063,1262.743h-21.818c-1.303,0-2.36-1.057-2.36-2.36s1.057-2.359,2.36-2.359h21.818
				c1.303,0,2.36,1.057,2.36,2.359S405.366,1262.743,404.063,1262.743z"/>
		</g>
		<g>
			<path style="fill:#33363F;" d="M432.919,1262.743H411.1c-1.303,0-2.359-1.057-2.359-2.36s1.056-2.359,2.359-2.359h21.819
				c1.303,0,2.359,1.057,2.359,2.359S434.221,1262.743,432.919,1262.743z"/>
		</g>
		<g>
			<path style="fill:#33363F;" d="M230.938,1274.636h-21.816c-1.303,0-2.359-1.057-2.359-2.359c0-1.303,1.057-2.359,2.359-2.359
				h21.816c1.303,0,2.359,1.057,2.359,2.359C233.297,1273.579,232.241,1274.636,230.938,1274.636z"/>
		</g>
		<g>
			<path style="fill:#33363F;" d="M259.793,1274.636h-21.818c-1.303,0-2.359-1.057-2.359-2.359c0-1.303,1.057-2.359,2.359-2.359
				h21.818c1.303,0,2.359,1.057,2.359,2.359C262.153,1273.579,261.096,1274.636,259.793,1274.636z"/>
		</g>
		<g>
			<path style="fill:#33363F;" d="M288.648,1274.636H266.83c-1.303,0-2.359-1.057-2.359-2.359c0-1.303,1.057-2.359,2.359-2.359
				h21.818c1.303,0,2.359,1.057,2.359,2.359C291.008,1273.579,289.951,1274.636,288.648,1274.636z"/>
		</g>
		<g>
			<path style="fill:#33363F;" d="M317.501,1274.636h-21.816c-1.303,0-2.36-1.057-2.36-2.359c0-1.303,1.057-2.359,2.36-2.359h21.816
				c1.303,0,2.359,1.057,2.359,2.359C319.86,1273.579,318.803,1274.636,317.501,1274.636z"/>
		</g>
		<g>
			<path style="fill:#33363F;" d="M346.356,1274.636h-21.818c-1.303,0-2.36-1.057-2.36-2.359c0-1.303,1.057-2.359,2.36-2.359h21.818
				c1.303,0,2.36,1.057,2.36,2.359C348.715,1273.579,347.658,1274.636,346.356,1274.636z"/>
		</g>
		<g>
			<path style="fill:#33363F;" d="M375.211,1274.636h-21.818c-1.303,0-2.36-1.057-2.36-2.359c0-1.303,1.057-2.359,2.36-2.359h21.818
				c1.303,0,2.36,1.057,2.36,2.359C377.57,1273.579,376.513,1274.636,375.211,1274.636z"/>
		</g>
		<g>
			<path style="fill:#33363F;" d="M404.063,1274.636h-21.818c-1.303,0-2.36-1.057-2.36-2.359c0-1.303,1.057-2.359,2.36-2.359h21.818
				c1.303,0,2.36,1.057,2.36,2.359C406.423,1273.579,405.366,1274.636,404.063,1274.636z"/>
		</g>
		<g>
			<path style="fill:#33363F;" d="M432.919,1274.636H411.1c-1.303,0-2.359-1.057-2.359-2.359c0-1.303,1.056-2.359,2.359-2.359
				h21.819c1.303,0,2.359,1.057,2.359,2.359C435.278,1273.579,434.221,1274.636,432.919,1274.636z"/>
		</g>
		<g>
			<path style="fill:#33363F;" d="M230.938,1286.531h-21.816c-1.303,0-2.359-1.056-2.359-2.359c0-1.302,1.057-2.359,2.359-2.359
				h21.816c1.303,0,2.359,1.057,2.359,2.359C233.297,1285.475,232.241,1286.531,230.938,1286.531z"/>
		</g>
		<g>
			<path style="fill:#33363F;" d="M259.793,1286.531h-21.818c-1.303,0-2.359-1.056-2.359-2.359c0-1.302,1.057-2.359,2.359-2.359
				h21.818c1.303,0,2.359,1.057,2.359,2.359C262.153,1285.475,261.096,1286.531,259.793,1286.531z"/>
		</g>
		<g>
			<path style="fill:#33363F;" d="M288.648,1286.531H266.83c-1.303,0-2.359-1.056-2.359-2.359c0-1.302,1.057-2.359,2.359-2.359
				h21.818c1.303,0,2.359,1.057,2.359,2.359C291.008,1285.475,289.951,1286.531,288.648,1286.531z"/>
		</g>
		<g>
			<path style="fill:#33363F;" d="M317.501,1286.531h-21.816c-1.303,0-2.36-1.056-2.36-2.359c0-1.302,1.057-2.359,2.36-2.359h21.816
				c1.303,0,2.359,1.057,2.359,2.359C319.86,1285.475,318.803,1286.531,317.501,1286.531z"/>
		</g>
		<g>
			<path style="fill:#33363F;" d="M346.356,1286.531h-21.818c-1.303,0-2.36-1.056-2.36-2.359c0-1.302,1.057-2.359,2.36-2.359h21.818
				c1.303,0,2.36,1.057,2.36,2.359C348.715,1285.475,347.658,1286.531,346.356,1286.531z"/>
		</g>
		<g>
			<path style="fill:#33363F;" d="M375.211,1286.531h-21.818c-1.303,0-2.36-1.056-2.36-2.359c0-1.302,1.057-2.359,2.36-2.359h21.818
				c1.303,0,2.36,1.057,2.36,2.359C377.57,1285.475,376.513,1286.531,375.211,1286.531z"/>
		</g>
		<g>
			<path style="fill:#33363F;" d="M404.063,1286.531h-21.818c-1.303,0-2.36-1.056-2.36-2.359c0-1.302,1.057-2.359,2.36-2.359h21.818
				c1.303,0,2.36,1.057,2.36,2.359C406.423,1285.475,405.366,1286.531,404.063,1286.531z"/>
		</g>
		<g>
			<path style="fill:#33363F;" d="M432.919,1286.531H411.1c-1.303,0-2.359-1.056-2.359-2.359c0-1.302,1.056-2.359,2.359-2.359
				h21.819c1.303,0,2.359,1.057,2.359,2.359C435.278,1285.475,434.221,1286.531,432.919,1286.531z"/>
		</g>
		<g>
			<path style="fill:#33363F;" d="M230.938,1298.425h-21.816c-1.303,0-2.359-1.057-2.359-2.36c0-1.303,1.057-2.359,2.359-2.359
				h21.816c1.303,0,2.359,1.057,2.359,2.359C233.297,1297.369,232.241,1298.425,230.938,1298.425z"/>
		</g>
		<g>
			<path style="fill:#33363F;" d="M259.793,1298.425h-21.818c-1.303,0-2.359-1.057-2.359-2.36c0-1.303,1.057-2.359,2.359-2.359
				h21.818c1.303,0,2.359,1.057,2.359,2.359C262.153,1297.369,261.096,1298.425,259.793,1298.425z"/>
		</g>
		<g>
			<path style="fill:#33363F;" d="M288.648,1298.425H266.83c-1.303,0-2.359-1.057-2.359-2.36c0-1.303,1.057-2.359,2.359-2.359
				h21.818c1.303,0,2.359,1.057,2.359,2.359C291.008,1297.369,289.951,1298.425,288.648,1298.425z"/>
		</g>
		<g>
			<path style="fill:#33363F;" d="M317.501,1298.425h-21.816c-1.303,0-2.36-1.057-2.36-2.36c0-1.303,1.057-2.359,2.36-2.359h21.816
				c1.303,0,2.359,1.057,2.359,2.359C319.86,1297.369,318.803,1298.425,317.501,1298.425z"/>
		</g>
		<g>
			<path style="fill:#33363F;" d="M346.356,1298.425h-21.818c-1.303,0-2.36-1.057-2.36-2.36c0-1.303,1.057-2.359,2.36-2.359h21.818
				c1.303,0,2.36,1.057,2.36,2.359C348.715,1297.369,347.658,1298.425,346.356,1298.425z"/>
		</g>
		<g>
			<path style="fill:#33363F;" d="M375.211,1298.425h-21.818c-1.303,0-2.36-1.057-2.36-2.36c0-1.303,1.057-2.359,2.36-2.359h21.818
				c1.303,0,2.36,1.057,2.36,2.359C377.57,1297.369,376.513,1298.425,375.211,1298.425z"/>
		</g>
		<g>
			<path style="fill:#33363F;" d="M404.063,1298.425h-21.818c-1.303,0-2.36-1.057-2.36-2.36c0-1.303,1.057-2.359,2.36-2.359h21.818
				c1.303,0,2.36,1.057,2.36,2.359C406.423,1297.369,405.366,1298.425,404.063,1298.425z"/>
		</g>
		<g>
			<path style="fill:#33363F;" d="M432.919,1298.425H411.1c-1.303,0-2.359-1.057-2.359-2.36c0-1.303,1.056-2.359,2.359-2.359h21.819
				c1.303,0,2.359,1.057,2.359,2.359C435.278,1297.369,434.221,1298.425,432.919,1298.425z"/>
		</g>
		<g>
			<path style="fill:#33363F;" d="M230.938,1310.319h-21.816c-1.303,0-2.359-1.057-2.359-2.36c0-1.303,1.057-2.359,2.359-2.359
				h21.816c1.303,0,2.359,1.057,2.359,2.359C233.297,1309.262,232.241,1310.319,230.938,1310.319z"/>
		</g>
		<g>
			<path style="fill:#33363F;" d="M259.793,1310.319h-21.818c-1.303,0-2.359-1.057-2.359-2.36c0-1.303,1.057-2.359,2.359-2.359
				h21.818c1.303,0,2.359,1.057,2.359,2.359C262.153,1309.262,261.096,1310.319,259.793,1310.319z"/>
		</g>
		<g>
			<path style="fill:#33363F;" d="M288.648,1310.319H266.83c-1.303,0-2.359-1.057-2.359-2.36c0-1.303,1.057-2.359,2.359-2.359
				h21.818c1.303,0,2.359,1.057,2.359,2.359C291.008,1309.262,289.951,1310.319,288.648,1310.319z"/>
		</g>
		<g>
			<path style="fill:#33363F;" d="M317.501,1310.319h-21.816c-1.303,0-2.36-1.057-2.36-2.36c0-1.303,1.057-2.359,2.36-2.359h21.816
				c1.303,0,2.359,1.057,2.359,2.359C319.86,1309.262,318.803,1310.319,317.501,1310.319z"/>
		</g>
		<g>
			<path style="fill:#33363F;" d="M346.356,1310.319h-21.818c-1.303,0-2.36-1.057-2.36-2.36c0-1.303,1.057-2.359,2.36-2.359h21.818
				c1.303,0,2.36,1.057,2.36,2.359C348.715,1309.262,347.658,1310.319,346.356,1310.319z"/>
		</g>
		<g>
			<path style="fill:#33363F;" d="M375.211,1310.319h-21.818c-1.303,0-2.36-1.057-2.36-2.36c0-1.303,1.057-2.359,2.36-2.359h21.818
				c1.303,0,2.36,1.057,2.36,2.359C377.57,1309.262,376.513,1310.319,375.211,1310.319z"/>
		</g>
		<g>
			<path style="fill:#33363F;" d="M404.063,1310.319h-21.818c-1.303,0-2.36-1.057-2.36-2.36c0-1.303,1.057-2.359,2.36-2.359h21.818
				c1.303,0,2.36,1.057,2.36,2.359C406.423,1309.262,405.366,1310.319,404.063,1310.319z"/>
		</g>
		<g>
			<path style="fill:#33363F;" d="M432.919,1310.319H411.1c-1.303,0-2.359-1.057-2.359-2.36c0-1.303,1.056-2.359,2.359-2.359h21.819
				c1.303,0,2.359,1.057,2.359,2.359C435.278,1309.262,434.221,1310.319,432.919,1310.319z"/>
		</g>
		<g>
			<path style="fill:#33363F;" d="M230.938,1322.214h-21.816c-1.303,0-2.359-1.057-2.359-2.359s1.057-2.359,2.359-2.359h21.816
				c1.303,0,2.359,1.056,2.359,2.359S232.241,1322.214,230.938,1322.214z"/>
		</g>
		<g>
			<path style="fill:#33363F;" d="M259.793,1322.214h-21.818c-1.303,0-2.359-1.057-2.359-2.359s1.057-2.359,2.359-2.359h21.818
				c1.303,0,2.359,1.056,2.359,2.359S261.096,1322.214,259.793,1322.214z"/>
		</g>
		<g>
			<path style="fill:#33363F;" d="M288.648,1322.214H266.83c-1.303,0-2.359-1.057-2.359-2.359s1.057-2.359,2.359-2.359h21.818
				c1.303,0,2.359,1.056,2.359,2.359S289.951,1322.214,288.648,1322.214z"/>
		</g>
		<g>
			<path style="fill:#33363F;" d="M317.501,1322.214h-21.816c-1.303,0-2.36-1.057-2.36-2.359s1.057-2.359,2.36-2.359h21.816
				c1.303,0,2.359,1.056,2.359,2.359S318.803,1322.214,317.501,1322.214z"/>
		</g>
		<g>
			<path style="fill:#33363F;" d="M346.356,1322.214h-21.818c-1.303,0-2.36-1.057-2.36-2.359s1.057-2.359,2.36-2.359h21.818
				c1.303,0,2.36,1.056,2.36,2.359S347.658,1322.214,346.356,1322.214z"/>
		</g>
		<g>
			<path style="fill:#33363F;" d="M375.211,1322.214h-21.818c-1.303,0-2.36-1.057-2.36-2.359s1.057-2.359,2.36-2.359h21.818
				c1.303,0,2.36,1.056,2.36,2.359S376.513,1322.214,375.211,1322.214z"/>
		</g>
		<g>
			<path style="fill:#33363F;" d="M404.063,1322.214h-21.818c-1.303,0-2.36-1.057-2.36-2.359s1.057-2.359,2.36-2.359h21.818
				c1.303,0,2.36,1.056,2.36,2.359S405.366,1322.214,404.063,1322.214z"/>
		</g>
		<g>
			<path style="fill:#33363F;" d="M432.919,1322.214H411.1c-1.303,0-2.359-1.057-2.359-2.359s1.056-2.359,2.359-2.359h21.819
				c1.303,0,2.359,1.056,2.359,2.359S434.221,1322.214,432.919,1322.214z"/>
		</g>
		<g>
			<path style="fill:#33363F;" d="M230.938,1334.108h-21.816c-1.303,0-2.359-1.056-2.359-2.359s1.057-2.36,2.359-2.36h21.816
				c1.303,0,2.359,1.057,2.359,2.36S232.241,1334.108,230.938,1334.108z"/>
		</g>
		<g>
			<path style="fill:#33363F;" d="M259.793,1334.108h-21.818c-1.303,0-2.359-1.056-2.359-2.359s1.057-2.36,2.359-2.36h21.818
				c1.303,0,2.359,1.057,2.359,2.36S261.096,1334.108,259.793,1334.108z"/>
		</g>
		<g>
			<path style="fill:#33363F;" d="M288.648,1334.108H266.83c-1.303,0-2.359-1.056-2.359-2.359s1.057-2.36,2.359-2.36h21.818
				c1.303,0,2.359,1.057,2.359,2.36S289.951,1334.108,288.648,1334.108z"/>
		</g>
		<g>
			<path style="fill:#33363F;" d="M317.501,1334.108h-21.816c-1.303,0-2.36-1.056-2.36-2.359s1.057-2.36,2.36-2.36h21.816
				c1.303,0,2.359,1.057,2.359,2.36S318.803,1334.108,317.501,1334.108z"/>
		</g>
		<g>
			<path style="fill:#33363F;" d="M346.356,1334.108h-21.818c-1.303,0-2.36-1.056-2.36-2.359s1.057-2.36,2.36-2.36h21.818
				c1.303,0,2.36,1.057,2.36,2.36S347.658,1334.108,346.356,1334.108z"/>
		</g>
		<g>
			<path style="fill:#33363F;" d="M375.211,1334.108h-21.818c-1.303,0-2.36-1.056-2.36-2.359s1.057-2.36,2.36-2.36h21.818
				c1.303,0,2.36,1.057,2.36,2.36S376.513,1334.108,375.211,1334.108z"/>
		</g>
		<g>
			<path style="fill:#33363F;" d="M404.063,1334.108h-21.818c-1.303,0-2.36-1.056-2.36-2.359s1.057-2.36,2.36-2.36h21.818
				c1.303,0,2.36,1.057,2.36,2.36S405.366,1334.108,404.063,1334.108z"/>
		</g>
		<g>
			<path style="fill:#33363F;" d="M432.919,1334.108H411.1c-1.303,0-2.359-1.056-2.359-2.359s1.056-2.36,2.359-2.36h21.819
				c1.303,0,2.359,1.057,2.359,2.36S434.221,1334.108,432.919,1334.108z"/>
		</g>
	</g>
	<g>
		<polygon style="fill:#D7CBCB;" points="672.578,1465.48 644.963,1519.063 86.086,1519.063 86.086,1465.48 		"/>
	</g>
	<g>
		<polygon style="fill:#D6D2CF;" points="545.257,1465.47 545.257,1519.063 644.964,1519.381 672.578,1465.48 		"/>
	</g>
	<g>
		<path style="fill:#363857;" d="M995.709,1465.474c-14.616-60.988-71.209-105.434-136.293-105.434h-46.702
			c-2.394,0-4.773,0.065-7.137,0.186c-0.506,0.026-1.003,0.083-1.506,0.114c-1.867,0.116-3.73,0.246-5.576,0.436
			c-0.424,0.044-0.841,0.114-1.265,0.161c-1.92,0.217-3.834,0.453-5.729,0.748c-0.309,0.049-0.611,0.114-0.919,0.165
			c-2.011,0.328-4.013,0.686-5.994,1.1c-0.156,0.032-0.308,0.074-0.461,0.107c-2.129,0.453-4.238,0.95-6.328,1.501
			c-0.052,0.014-0.103,0.03-0.156,0.043c-48.557,12.856-86.432,51.786-97.93,100.878c0-0.002,0.002-0.004,0.002-0.007
			c-2.355,10.049-3.691,20.491-3.691,31.257c0,37.746,15.3,71.918,40.035,96.654c0.076,0.075,0.157,0.146,0.232,0.222
			c4.151,4.131,8.581,7.979,13.231,11.553c23.046,17.709,51.88,28.261,83.191,28.261h49.979
			c77.146,0,139.366-63.911,136.601-141.674C998.972,1482.717,997.738,1473.94,995.709,1465.474z"/>
		<g>
			<path style="fill:#C8302F;" d="M777.643,1364.602c0.053-0.014,0.103-0.03,0.156-0.044c2.09-0.55,4.199-1.048,6.327-1.5
				c0.154-0.033,0.306-0.074,0.462-0.106c1.98-0.415,3.983-0.773,5.994-1.101c0.308-0.051,0.611-0.116,0.919-0.164
				c1.895-0.295,3.809-0.532,5.729-0.749c0.423-0.047,0.84-0.117,1.265-0.161c1.846-0.191,3.709-0.32,5.576-0.436
				c0.503-0.031,1-0.088,1.506-0.114c2.364-0.121,4.743-0.186,7.137-0.186h46.702c65.086,0,121.681,44.449,136.294,105.439h50.006
				c-15.353-87.198-91.425-153.467-183.025-153.467c-91.6,0-167.672,66.269-183.025,153.467h0.046
				C691.211,1416.388,729.086,1377.458,777.643,1364.602z"/>
		</g>
		<g>
			<circle style="fill:#3D4063;" cx="862.692" cy="1496.731" r="136.69"/>
		</g>
		<g>
			
				<ellipse transform="matrix(0.7071 -0.7071 0.7071 0.7071 -805.6717 1048.3976)" style="fill:#D5D2DD;" cx="862.692" cy="1496.731" rx="78.221" ry="78.221"/>
		</g>
		<g>
			<circle style="fill:#AEA5AC;" cx="862.692" cy="1496.731" r="73.341"/>
		</g>
		<g>
			<path style="fill:#C6BBC3;" d="M862.693,1423.389c-3.404,0-6.728,0.314-10.009,0.762c35.757,4.893,63.332,35.478,63.332,72.579
				c0,37.101-27.575,67.687-63.332,72.579c3.281,0.449,6.605,0.762,10.009,0.762c40.504,0,73.341-32.836,73.341-73.341
				C936.033,1456.226,903.197,1423.389,862.693,1423.389z"/>
		</g>
		<g>
			
				<ellipse transform="matrix(0.9996 -0.0274 0.0274 0.9996 -40.6512 24.1781)" style="fill:#CDC4CD;" cx="862.692" cy="1496.731" rx="48.028" ry="48.028"/>
		</g>
		<g>
			
				<ellipse transform="matrix(0.9732 -0.2298 0.2298 0.9732 -320.5514 240.3866)" style="fill:#D5D2DD;" cx="872.011" cy="1496.731" rx="38.709" ry="38.709"/>
		</g>
	</g>
	<g>
		<path style="fill:#363857;" d="M1991.95,1465.474c-14.616-60.988-71.209-105.434-136.293-105.434h-46.703
			c-2.394,0-4.773,0.065-7.137,0.186c-0.505,0.026-1.002,0.083-1.506,0.114c-1.867,0.116-3.73,0.246-5.575,0.436
			c-0.424,0.044-0.841,0.114-1.265,0.161c-1.921,0.217-3.835,0.453-5.73,0.748c-0.308,0.049-0.611,0.114-0.919,0.165
			c-2.011,0.328-4.013,0.686-5.994,1.1c-0.156,0.032-0.308,0.074-0.462,0.107c-2.129,0.453-4.238,0.95-6.327,1.501
			c-0.053,0.014-0.103,0.03-0.156,0.043c-48.557,12.856-86.432,51.786-97.93,100.878c0.001-0.002,0.001-0.004,0.002-0.007
			c-2.355,10.049-3.691,20.491-3.691,31.257c0,37.746,15.3,71.918,40.035,96.654c0.076,0.075,0.157,0.146,0.233,0.222
			c4.151,4.131,8.581,7.979,13.231,11.553c23.046,17.709,51.88,28.261,83.191,28.261h49.979
			c77.146,0,139.366-63.911,136.601-141.674C1995.212,1482.717,1993.978,1473.94,1991.95,1465.474z"/>
		<g>
			<path style="fill:#C8302F;" d="M1773.883,1364.602c0.053-0.014,0.103-0.03,0.156-0.044c2.09-0.55,4.199-1.048,6.328-1.5
				c0.154-0.033,0.306-0.074,0.462-0.106c1.98-0.415,3.983-0.773,5.994-1.101c0.308-0.051,0.611-0.116,0.919-0.164
				c1.896-0.295,3.809-0.532,5.73-0.749c0.423-0.047,0.84-0.117,1.265-0.161c1.846-0.191,3.708-0.32,5.575-0.436
				c0.504-0.031,1.001-0.088,1.506-0.114c2.364-0.121,4.743-0.186,7.137-0.186h46.703c65.086,0,121.681,44.449,136.294,105.439
				h50.006c-15.353-87.198-91.425-153.467-183.026-153.467c-91.6,0-167.672,66.269-183.025,153.467h0.046
				C1687.451,1416.388,1725.326,1377.458,1773.883,1364.602z"/>
		</g>
		<g>
			<circle style="fill:#3D4063;" cx="1858.933" cy="1496.731" r="136.69"/>
		</g>
		<g>
			
				<ellipse transform="matrix(0.7071 -0.7071 0.7071 0.7071 -513.8796 1752.8461)" style="fill:#D5D2DD;" cx="1858.933" cy="1496.731" rx="78.221" ry="78.221"/>
		</g>
		<g>
			<circle style="fill:#AEA5AC;" cx="1858.933" cy="1496.731" r="73.341"/>
		</g>
		<g>
			<path style="fill:#C6BBC3;" d="M1858.933,1423.389c-3.404,0-6.728,0.314-10.009,0.762c35.757,4.893,63.332,35.478,63.332,72.579
				c0,37.101-27.575,67.687-63.332,72.579c3.281,0.449,6.605,0.762,10.009,0.762c40.505,0,73.341-32.836,73.341-73.341
				C1932.274,1456.226,1899.437,1423.389,1858.933,1423.389z"/>
		</g>
		<g>
			
				<ellipse transform="matrix(0.9956 -0.0933 0.0933 0.9956 -131.5071 179.9228)" style="fill:#CDC4CD;" cx="1858.932" cy="1496.731" rx="48.028" ry="48.028"/>
		</g>
		<g>
			
				<ellipse transform="matrix(0.0313 -0.9995 0.9995 0.0313 313.8144 3317.2502)" style="fill:#D5D2DD;" cx="1868.252" cy="1496.731" rx="38.709" ry="38.708"/>
		</g>
	</g>
	<g>
		<path style="fill:#C23838;" d="M2101.896,737.296H876.585c-1.3,0-2.352-1.052-2.352-2.352c0-1.3,1.053-2.352,2.352-2.352h1225.312
			c1.3,0,2.353,1.052,2.353,2.352C2104.249,736.244,2103.197,737.296,2101.896,737.296z"/>
	</g>
	<path style="fill:#C23838;" d="M1327.672,1186.04V778.61c0-10.938-8.898-19.836-19.833-19.836h-237.608
		c-10.935,0-19.833,8.897-19.833,19.836v407.43H557.901c-0.797,1.468-1.545,2.96-2.244,4.48c0.299,0.138,0.625,0.225,0.977,0.225
		h493.763v274.735h277.275v-274.735h774.225v-4.705H1327.672z M1322.967,1463.129h-267.865V778.61
		c0-8.344,6.787-15.131,15.129-15.131h237.608c8.342,0,15.129,6.786,15.129,15.131V1463.129z"/>
	<g>
		<path style="fill:#EB5E5E;" d="M1076.983,1171.374L1076.983,1171.374c5.35,0,9.687-4.337,9.687-9.687v-48.449
			c0-5.35-4.337-9.687-9.687-9.687l0,0c-5.35,0-9.687,4.336-9.687,9.687v48.449
			C1067.296,1167.037,1071.633,1171.374,1076.983,1171.374z"/>
	</g>
	<g>
		<g>
			<g>
				<g>
					<path style="fill:#EF7A39;" d="M549.794,653.809v-8.173c0-3.972-1.072-15.202-19.857-15.202s-19.858,11.23-19.858,15.202v8.173
						c-0.972,0.886-1.544,1.846-1.544,2.857v15.213h42.803v-15.213C551.339,655.655,550.767,654.695,549.794,653.809z"/>
				</g>
				<g>
					<path style="fill:#C6BBC3;" d="M549.794,653.809c0,1.239,0,2.04,0,2.04c0,3.972-8.891,7.193-19.857,7.193
						c-10.967,0-19.858-3.221-19.858-7.193v-2.04c-0.972,0.886-1.544,1.846-1.544,2.857v15.213h42.803v-15.213
						C551.339,655.655,550.767,654.695,549.794,653.809z"/>
				</g>
				<g>
					<path style="fill:#F4963C;" d="M529.937,652.83c10.967,0,19.857-3.22,19.857-7.193c0-3.973-1.307-15.203-19.857-15.203
						c-18.551,0-19.858,11.23-19.858,15.203C510.079,649.609,518.97,652.83,529.937,652.83z"/>
				</g>
				<g>
					<path style="fill:#F8AC36;" d="M531.845,646.518c6.494,0,11.758-3.295,11.758-7.359c0-4.064-5.264-7.358-11.758-7.358
						c-6.493,0-11.758,3.294-11.758,7.358C520.088,643.223,525.352,646.518,531.845,646.518z"/>
				</g>
			</g>
			<g>
				<path style="fill:#B6B0BA;" d="M549.794,653.81c0,1.239,0,2.04,0,2.04c0,3.972-8.891,7.193-19.857,7.193
					c-10.967,0-19.858-3.221-19.858-7.193v-2.04c-0.972,0.886-1.544,1.846-1.544,2.857c0,4.282,9.581,7.753,21.401,7.753
					c11.82,0,21.401-3.471,21.401-7.753C551.338,655.655,550.767,654.696,549.794,653.81z"/>
			</g>
		</g>
		<g>
			<g>
				<g>
					<path style="fill:#EF7A39;" d="M862.044,653.809v-8.173c0-3.972-1.072-15.202-19.857-15.202
						c-18.786,0-19.857,11.23-19.857,15.202v8.173c-0.972,0.886-1.544,1.846-1.544,2.857v15.213h42.803v-15.213
						C863.589,655.655,863.017,654.695,862.044,653.809z"/>
				</g>
				<g>
					<path style="fill:#C6BBC3;" d="M862.044,653.809c0,1.239,0,2.04,0,2.04c0,3.972-8.891,7.193-19.857,7.193
						c-10.966,0-19.857-3.221-19.857-7.193v-2.04c-0.972,0.886-1.544,1.846-1.544,2.857v15.213h42.803v-15.213
						C863.589,655.655,863.017,654.695,862.044,653.809z"/>
				</g>
				<g>
					<path style="fill:#F4963C;" d="M842.187,652.83c10.967,0,19.857-3.22,19.857-7.193c0-3.973-1.307-15.203-19.857-15.203
						c-18.55,0-19.857,11.23-19.857,15.203C822.33,649.609,831.22,652.83,842.187,652.83z"/>
				</g>
				<g>
					<path style="fill:#F8AC36;" d="M844.096,646.518c6.493,0,11.758-3.295,11.758-7.359c0-4.064-5.264-7.358-11.758-7.358
						c-6.494,0-11.758,3.294-11.758,7.358C832.338,643.223,837.602,646.518,844.096,646.518z"/>
				</g>
			</g>
			<g>
				<path style="fill:#B6B0BA;" d="M862.044,653.81c0,1.239,0,2.04,0,2.04c0,3.972-8.891,7.193-19.857,7.193
					c-10.966,0-19.857-3.221-19.857-7.193v-2.04c-0.972,0.886-1.544,1.846-1.544,2.857c0,4.282,9.581,7.753,21.401,7.753
					c11.82,0,21.401-3.471,21.401-7.753C863.588,655.655,863.017,654.696,862.044,653.81z"/>
			</g>
		</g>
	</g>
	<g>
		<path style="fill:#86221C;" d="M2250.914,838.289l-178.426-61.208h-730.729l41.715,14.31v246.953
			c0,9.356,7.585,16.941,16.942,16.941h640.318c9.356,0,16.942-7.585,16.942-16.941V913.776
			c13.867-1.726,24.609-13.53,24.609-27.865c0,15.522,12.583,28.105,28.105,28.105c15.522,0,28.105-12.583,28.105-28.105
			c0,15.522,12.583,28.105,28.106,28.105c15.521,0,28.105-12.583,28.105-28.105c0,15.522,12.581,28.105,28.104,28.105
			c15.522,0,28.105-12.583,28.105-28.105L2250.914,838.289L2250.914,838.289z"/>
		<path style="fill:#D6D2CF;" d="M2055.324,913.958v124.385c0,8.044-6.544,14.589-14.589,14.589h-640.318
			c-8.045,0-14.59-6.545-14.59-14.589V792.198l-2.352-0.807v246.953c0,9.356,7.585,16.941,16.942,16.941h640.318
			c9.356,0,16.942-7.585,16.942-16.941V913.776C2056.902,913.872,2056.116,913.926,2055.324,913.958z"/>
	</g>
	<g>
		<path style="fill:#C3ACB1;" d="M2250.915,838.289L2250.915,838.289L2250.915,838.289L2250.915,838.289l-178.427-61.208h-730.729
			l178.426,61.208h0.001v47.622c0,15.522,12.583,28.105,28.104,28.105c15.524,0,28.105-12.583,28.105-28.105
			c0,15.522,12.584,28.105,28.105,28.105c15.522,0,28.106-12.583,28.106-28.105c0,15.522,12.584,28.105,28.105,28.105
			c15.521,0,28.106-12.583,28.106-28.105c0,15.522,12.583,28.105,28.105,28.105c15.521,0,28.105-12.583,28.105-28.105
			c0,15.522,12.583,28.105,28.105,28.105c15.521,0,28.105-12.583,28.105-28.105c0,15.522,12.582,28.105,28.105,28.105
			c15.522,0,28.105-12.583,28.105-28.105c0,15.522,12.583,28.105,28.105,28.105s28.104-12.583,28.104-28.105
			c0,15.522,12.584,28.105,28.106,28.105c15.523,0,28.105-12.583,28.105-28.105c0,15.522,12.584,28.105,28.106,28.105
			c15.522,0,28.105-12.583,28.105-28.105c0,15.522,12.584,28.105,28.105,28.105s28.105-12.583,28.105-28.105
			c0,15.522,12.583,28.105,28.105,28.105c15.522,0,28.105-12.583,28.105-28.105c0,15.522,12.583,28.105,28.106,28.105
			c15.521,0,28.105-12.583,28.105-28.105c0,15.522,12.581,28.105,28.104,28.105c15.522,0,28.105-12.583,28.105-28.105V838.289
			L2250.915,838.289z"/>
		<g>
			<path style="fill:#E2CCD0;" d="M1520.186,838.289v47.622c0,15.522,12.583,28.105,28.104,28.105
				c15.523,0,28.105-12.583,28.105-28.105c0,15.522,12.584,28.105,28.105,28.105c15.522,0,28.105-12.583,28.105-28.105
				c0,15.522,12.584,28.105,28.105,28.105c15.521,0,28.105-12.583,28.105-28.105c0,15.522,12.583,28.105,28.105,28.105l0,0
				c15.521,0,28.105-12.583,28.105-28.105c0,15.522,12.583,28.105,28.105,28.105c15.521,0,28.105-12.583,28.105-28.105
				c0,15.522,12.582,28.105,28.104,28.105c15.523,0,28.105-12.583,28.105-28.105c0,15.522,12.583,28.105,28.105,28.105
				c15.522,0,28.104-12.583,28.104-28.105c0,15.522,12.584,28.105,28.105,28.105c15.523,0,28.105-12.583,28.105-28.105
				c0,15.522,12.584,28.105,28.105,28.105c15.522,0,28.105-12.583,28.105-28.105c0,15.522,12.584,28.105,28.105,28.105
				c15.521,0,28.105-12.583,28.105-28.105c0,15.522,12.583,28.105,28.105,28.105l0,0c15.522,0,28.105-12.583,28.105-28.105
				c0,15.522,12.583,28.105,28.105,28.105c15.521,0,28.105-12.583,28.105-28.105c0,15.522,12.581,28.105,28.104,28.105
				c15.522,0,28.105-12.583,28.105-28.105v-47.622H1520.186z"/>
		</g>
		<g>
			<polygon style="fill:#D89529;" points="1632.606,838.289 1576.395,838.289 1397.969,777.08 1454.179,777.08 			"/>
		</g>
		<g>
			<polygon style="fill:#D89529;" points="1745.026,838.289 1688.816,838.289 1510.389,777.08 1566.599,777.08 			"/>
		</g>
		<g>
			<polygon style="fill:#D89529;" points="1857.445,838.289 1801.235,838.289 1622.809,777.08 1679.019,777.08 			"/>
		</g>
		<g>
			<polygon style="fill:#D89529;" points="1969.865,838.289 1913.655,838.289 1735.228,777.08 1791.438,777.08 			"/>
		</g>
		<g>
			<polygon style="fill:#D89529;" points="2082.285,838.289 2026.075,838.289 1847.648,777.08 1903.858,777.08 			"/>
		</g>
		<g>
			<polygon style="fill:#D89529;" points="2194.705,838.289 2138.495,838.289 1960.068,777.08 2016.278,777.08 			"/>
		</g>
		<g>
			<path style="fill:#F8AC36;" d="M1604.5,914.016L1604.5,914.016c-15.522,0-28.105-12.583-28.105-28.105v-47.622h56.21v47.622
				C1632.606,901.434,1620.022,914.016,1604.5,914.016z"/>
		</g>
		<g>
			<path style="fill:#F8AC36;" d="M1716.92,914.016L1716.92,914.016c-15.522,0-28.105-12.583-28.105-28.105v-47.622h56.21v47.622
				C1745.026,901.434,1732.442,914.016,1716.92,914.016z"/>
		</g>
		<g>
			<path style="fill:#F8AC36;" d="M1829.34,914.016L1829.34,914.016c-15.522,0-28.105-12.583-28.105-28.105v-47.622h56.21v47.622
				C1857.445,901.434,1844.862,914.016,1829.34,914.016z"/>
		</g>
		<g>
			<path style="fill:#F8AC36;" d="M1941.76,914.016L1941.76,914.016c-15.521,0-28.105-12.583-28.105-28.105v-47.622h56.21v47.622
				C1969.865,901.434,1957.282,914.016,1941.76,914.016z"/>
		</g>
		<g>
			<path style="fill:#F8AC36;" d="M2054.18,914.016L2054.18,914.016c-15.522,0-28.105-12.583-28.105-28.105v-47.622h56.21v47.622
				C2082.285,901.433,2069.702,914.016,2054.18,914.016z"/>
		</g>
		<g>
			<path style="fill:#F8AC36;" d="M2166.6,914.016L2166.6,914.016c-15.522,0-28.105-12.583-28.105-28.105v-47.622h56.21v47.622
				C2194.705,901.434,2182.121,914.016,2166.6,914.016z"/>
		</g>
	</g>
	<g>
		<path style="fill:#67717D;" d="M577.873,761.128H460.865c-14.826,0-28.017,9.411-32.841,23.43l-70.456,204.765
			c-7.759,22.549,8.994,46.03,32.841,46.03h117.008c14.826,0,28.017-9.411,32.841-23.43l70.456-204.765
			C618.473,784.609,601.72,761.128,577.873,761.128z"/>
		<path style="fill:#8DD2F0;" d="M577.873,764.656H460.865c-13.315,0-25.172,8.459-29.504,21.05l-70.457,204.765
			c-3.323,9.655-1.826,19.961,4.104,28.273c5.931,8.313,15.189,13.08,25.4,13.08h27.656l-34.617-30.766l-7.933,24.26
			c-0.706-0.428-1.318-1.003-1.988-1.49c-2.467-1.79-4.755-3.862-6.602-6.45c-5.484-7.686-6.866-17.214-3.795-26.142l70.457-204.765
			c4.006-11.641,14.969-19.462,27.28-19.462h117.008c9.441,0,18.001,4.408,23.486,12.094c5.483,7.686,6.866,17.214,3.794,26.142
			l-70.457,204.765c-0.987,2.869-2.435,5.47-4.195,7.804c-0.735,0.975-1.51,1.916-2.352,2.79V812.679
			c0-7.711-4.688-14.328-11.371-17.153c-2.227-0.942-4.676-1.463-7.246-1.463h-32.535c-2,0-3.968,0.166-5.892,0.487
			c-13.461,2.246-24.686,12.072-28.479,25.543l-58.382,178.525l37.362,33.206h85.81c13.315,0,25.172-8.459,29.504-21.05
			l70.457-204.765c3.323-9.655,1.826-19.961-4.104-28.273C597.342,769.424,588.084,764.656,577.873,764.656z"/>
		<g>
			<path style="fill:#67717D;" d="M798.163,761.128H681.187c-14.826,0-28.017,9.411-32.841,23.43L577.89,989.322
				c-7.759,22.549,8.994,46.03,32.841,46.03h116.834c14.818,0,28.003-9.401,32.833-23.409l70.6-204.765
				C838.773,784.626,822.019,761.128,798.163,761.128z"/>
		</g>
		<path style="fill:#8DD2F0;" d="M724.964,805.934c0-2.458-0.747-4.742-2.028-6.637c-2.133-3.158-5.745-5.234-9.843-5.234h-33.178
			l-44.142,128.535v96.067l12.159,10.807h77.032V805.934z"/>
		<path style="fill:#8DD2F0;" d="M823.809,794.063H758.36c-4.098,0-7.711,2.076-9.844,5.234c-1.279,1.895-2.028,4.179-2.028,6.637
			v216.36c0.829-0.724,1.609-1.493,2.353-2.309c2.588-2.841,4.69-6.169,5.997-9.958l70.6-204.765
			c0.936-2.714,1.409-5.483,1.531-8.24c0.037-0.826,0.06-1.651,0.025-2.472C825.974,794.264,824.919,794.063,823.809,794.063z"/>
		<path style="fill:#8DD2F0;" d="M635.772,839.177v64.779c16.245-47.447,33.388-97.332,37.888-109.808
			c0.012-0.033,0.029-0.053,0.041-0.085h-22.406l-0.81,2.352l-12.361,35.925L635.772,839.177z"/>
		<g>
			<path style="fill:#67717D;" d="M962.841,794.063h-32.535c-15.994,0-30.036,10.635-34.371,26.03l-69.345,212.053
				c-2.944,11.751,5.944,23.139,18.059,23.139h118.193c10.281,0,18.616-8.335,18.616-18.616v-223.99
				C981.457,802.397,973.122,794.063,962.841,794.063z"/>
		</g>
		<g>
			<path style="fill:#67717D;" d="M1166.4,794.063h-65.448c-6.557,0-11.871,5.315-11.871,11.871v237.48
				c0,6.556,5.315,11.871,11.871,11.871h65.448c6.557,0,11.871-5.315,11.871-11.871v-237.48
				C1178.272,799.378,1172.957,794.063,1166.4,794.063z"/>
		</g>
		<g>
			<path style="fill:#67717D;" d="M1277.117,794.063h-65.448c-6.557,0-11.872,5.315-11.872,11.871v237.48
				c0,6.556,5.315,11.871,11.872,11.871h65.448c6.556,0,11.871-5.315,11.871-11.871v-237.48
				C1288.989,799.378,1283.673,794.063,1277.117,794.063z"/>
		</g>
		<g>
			<path style="fill:#4B5258;" d="M962.841,794.063h-32.535c-15.994,0-30.036,10.635-34.371,26.03l-69.345,212.053
				c-2.944,11.751,5.944,23.139,18.059,23.139h118.193c10.282,0,18.617-8.335,18.617-18.616v-223.99
				C981.457,802.397,973.123,794.063,962.841,794.063z M833.305,1043.414c0,1.388-0.34,2.682-0.887,3.865
				c-0.186-0.215-0.416-0.378-0.592-0.604c-3.104-3.977-4.18-9.064-3.001-13.798l4.48-13.699V1043.414z M979.105,1036.668
				c0,8.968-7.296,16.264-16.264,16.264H844.648c-3.926,0-7.556-1.477-10.463-3.971c0.546-0.982,0.998-2.018,1.231-3.155
				c0.158-0.773,0.241-1.573,0.241-2.392v-31.43L898.2,820.73c4.03-14.316,17.233-24.315,32.106-24.315h32.535
				c8.968,0,16.264,7.296,16.264,16.263V1036.668z"/>
			<path style="fill:#4B5258;" d="M577.873,761.128H460.865c-14.826,0-28.017,9.411-32.841,23.43l-70.456,204.765
				c-7.759,22.549,8.994,46.03,32.841,46.03h31.625l-6.617-5.881h-25.008c-4.565,0-8.879-1.115-12.778-3.059l67.261-205.682
				c4.031-14.316,17.233-24.315,32.107-24.315h32.535c8.968,0,16.264,7.296,16.264,16.263v210.069
				c-5.064,4.205-11.484,6.724-18.38,6.724h-88.458l6.617,5.881h81.84c14.826,0,28.017-9.411,32.841-23.43l70.456-204.765
				C618.473,784.609,601.72,761.128,577.873,761.128z M605.153,805.244l-70.457,204.765c-1.399,4.068-3.687,7.629-6.547,10.595
				V812.679c0-7.711-4.688-14.328-11.371-17.153c-2.227-0.942-4.676-1.463-7.246-1.463h-32.535c-2,0-3.968,0.166-5.892,0.487
				c-13.461,2.246-24.686,12.072-28.479,25.543l-67.113,205.225c-3.305-2.001-6.242-4.648-8.59-7.939
				c-5.484-7.686-6.866-17.214-3.795-26.142l70.457-204.765c4.006-11.641,14.969-19.462,27.28-19.462h117.008
				c9.441,0,18.001,4.408,23.486,12.094C606.842,786.788,608.225,796.317,605.153,805.244z"/>
			<path style="fill:#4B5258;" d="M798.163,761.128H681.186c-14.826,0-28.017,9.411-32.841,23.43L577.89,989.322
				c-7.759,22.549,8.994,46.03,32.841,46.03h40.275l8.437,7.499l-15.055-13.38h-6.264v-5.568l-2.352-2.091l-2.352-2.091v9.749
				h-22.689c-9.442,0-18.002-4.408-23.486-12.093c-5.483-7.686-6.866-17.214-3.794-26.142l49.969-145.223v64.814
				c-0.066,0.193-0.131,0.383-0.197,0.576c0.847-2.473,1.696-4.957,2.55-7.448c0.783-2.286,1.567-4.577,2.352-6.87v-64.746
				l12.361-35.924h22.364c0.3-0.846,0.576-1.618,0.81-2.267c0.012-0.033,0.029-0.053,0.041-0.086
				c0.395-1.056,0.91-1.813,1.463-2.353c-0.001,0-0.001,0-0.001,0.001h-23.059l1.803-5.238
				c4.006-11.641,14.969-19.462,27.279-19.462h116.977c9.445,0,18.007,4.411,23.491,12.102c2.813,3.946,4.456,8.387,5.055,12.972
				c-1.015-0.228-1.973-0.373-2.901-0.373H758.36c-4.732,0-9.141,2.344-11.793,6.27c-1.591,2.355-2.431,5.105-2.431,7.954v216.36
				c0,0.511,0.194,0.971,0.483,1.367c-4.848,3.606-10.723,5.811-17.054,5.811h-0.249V805.934c0-2.85-0.84-5.602-2.431-7.955
				c-2.651-3.925-7.06-6.269-11.792-6.269h-32.37l-1.615,4.705h33.986c5.249,0,9.519,4.27,9.519,9.518v223.538h-74.68l-9.807-8.716
				V915.748l-4.705,13.7v87.126l27.011,24.007l-5.882-5.229h73.016c14.818,0,28.003-9.401,32.834-23.409l70.599-204.764
				C838.773,784.626,822.019,761.128,798.163,761.128z M825.438,805.261l-70.6,204.765c-1.307,3.79-3.409,7.117-5.997,9.958V805.934
				c0-5.248,4.27-9.518,9.519-9.518h65.449c1.12,0,2.165,0.247,3.16,0.607C826.847,799.779,826.374,802.547,825.438,805.261z"/>
			<path style="fill:#4B5258;" d="M1166.4,794.063h-65.449c-6.556,0-11.871,5.315-11.871,11.871v237.48
				c0,6.556,5.315,11.871,11.871,11.871h65.449c6.557,0,11.872-5.315,11.872-11.871v-237.48
				C1178.272,799.378,1172.957,794.063,1166.4,794.063z M1175.92,1043.414c0,5.248-4.271,9.519-9.52,9.519h-65.449
				c-5.248,0-9.518-4.271-9.518-9.519v-237.48c0-5.248,4.27-9.518,9.518-9.518h65.449c5.249,0,9.52,4.27,9.52,9.518V1043.414z"/>
			<path style="fill:#4B5258;" d="M1277.117,794.063h-65.448c-6.557,0-11.872,5.315-11.872,11.871v237.48
				c0,6.556,5.315,11.871,11.872,11.871h65.448c6.556,0,11.871-5.315,11.871-11.871v-237.48
				C1288.988,799.378,1283.673,794.063,1277.117,794.063z M1286.636,1043.414c0,5.248-4.27,9.519-9.519,9.519h-65.448
				c-5.249,0-9.52-4.271-9.52-9.519v-237.48c0-5.248,4.271-9.518,9.52-9.518h65.448c5.249,0,9.519,4.27,9.519,9.518V1043.414z"/>
		</g>
		<g>
			<path style="fill:#DDC8C4;" d="M667.502,1037.503c-0.754-0.185-1.459-0.351-1.649-0.395c-0.018-0.005-0.034-0.019-0.052-0.023
				c-1.884-0.463-3.955,1.005-5.37,3.497l-49.935-44.382l70.682-205.816h-2.488c0,0-3.496-0.484-5.029,3.765
				c-8.036,22.279-56.395,163.868-67.949,197.799l-2.063-1.834c-0.485-0.427-1.232-0.388-1.661,0.099
				c-0.432,0.485-0.386,1.229,0.098,1.661l2.803,2.491c-0.946,2.781-1.541,4.532-1.662,4.9c-1.527,4.609,2.315,4.117,2.315,4.117
				h2.488l1.638-4.769l49.775,44.24c-0.107,0.327-0.223,0.647-0.308,0.992c-1.074,4.372,0.168,8.437,2.774,9.077
				c0.065,0.016,0.133,0.003,0.198,0.015l1.503,0.403c2.608,0.641,5.591-2.384,6.666-6.757
				C671.351,1042.208,670.108,1038.144,667.502,1037.503z"/>
		</g>
		<path style="fill:#D6D2CF;" d="M962.841,794.063h-32.535c-15.994,0-30.036,10.635-34.371,26.03l-69.345,212.053
			c-2.944,11.751,5.944,23.139,18.059,23.139h118.193c10.282,0,18.617-8.335,18.617-18.616v-223.99
			C981.457,802.397,973.123,794.063,962.841,794.063z M979.105,1036.668c0,8.968-7.296,16.264-16.264,16.264H844.648
			c-5.045,0-9.718-2.281-12.822-6.258c-3.104-3.977-4.18-9.064-3.001-13.798L898.2,820.73c4.03-14.316,17.233-24.315,32.106-24.315
			h32.535c8.968,0,16.264,7.296,16.264,16.263V1036.668z"/>
		<g>
			<path style="fill:#DDC8C4;" d="M438.53,1037.503c-0.754-0.185-1.459-0.351-1.649-0.395c-0.019-0.005-0.034-0.019-0.052-0.023
				c-1.884-0.463-3.955,1.005-5.37,3.497l-49.935-44.382l70.682-205.816h-2.488c0,0-3.496-0.484-5.029,3.765
				c-8.036,22.279-56.395,163.868-67.949,197.799l-2.064-1.834c-0.484-0.427-1.231-0.388-1.661,0.099
				c-0.431,0.485-0.386,1.229,0.099,1.661l2.803,2.491c-0.946,2.781-1.541,4.532-1.663,4.9c-1.526,4.609,2.316,4.117,2.316,4.117
				h2.488l1.638-4.769l49.775,44.24c-0.107,0.327-0.223,0.647-0.308,0.992c-1.074,4.372,0.168,8.437,2.774,9.077
				c0.065,0.016,0.132,0.003,0.198,0.015l1.503,0.403c2.607,0.641,5.591-2.384,6.666-6.757
				C442.378,1042.208,441.136,1038.144,438.53,1037.503z"/>
		</g>
		<g>
			<path style="fill:#DCEFF7;" d="M833.305,1019.177l-4.48,13.699c-1.18,4.734-0.103,9.821,3.001,13.798
				c0.177,0.226,0.406,0.389,0.592,0.604c0.547-1.183,0.887-2.477,0.887-3.865V1019.177z"/>
		</g>
		<g>
			<g>
				<g>
					<polygon style="fill:#3B454F;" points="381.524,996.199 452.205,790.383 449.717,790.383 379.617,994.505 					"/>
				</g>
				<g>
					<g>
						<g>
							<path style="fill:#BBABA7;" d="M438.53,1037.503c-0.754-0.185-1.459-0.351-1.649-0.395c2.57,0.684,3.789,4.713,2.722,9.055
								c-1.048,4.263-3.909,7.219-6.467,6.772l1.502,0.403c2.607,0.641,5.591-2.384,6.666-6.757
								C442.378,1042.208,441.136,1038.144,438.53,1037.503z"/>
						</g>
					</g>
					<g>
						<g>
							<path style="fill:#EFDDD8;" d="M434.857,1046.353c-0.277,0-0.558-0.099-0.781-0.297l-60.963-54.183
								c-0.485-0.432-0.53-1.176-0.099-1.661c0.43-0.487,1.177-0.526,1.661-0.099l60.964,54.184c0.485,0.432,0.53,1.176,0.098,1.661
								C435.505,1046.219,435.182,1046.353,434.857,1046.353z"/>
						</g>
					</g>
					<g>
						<g>
							<polygon style="fill:#3B454F;" points="378.789,996.918 376.57,1003.381 379.057,1003.381 380.695,998.612 							"/>
						</g>
					</g>
				</g>
			</g>
			<g>
				<g>
					<path style="fill:#D6D2CF;" d="M798.163,761.128H681.187c-14.826,0-28.017,9.411-32.841,23.43L577.89,989.322
						c-7.759,22.549,8.994,46.03,32.841,46.03h40.276l-6.617-5.881h-8.617v-7.659l-2.352-2.091v9.749
						c0,1.299,1.053,2.352,2.352,2.352H610.73c-10.211,0-19.469-4.767-25.4-13.08c-5.93-8.312-7.427-18.618-4.104-28.273
						l52.321-152.06c-0.085,0.246-0.128,0.505-0.128,0.765v71.651c-0.066,0.193-0.131,0.384-0.197,0.576
						c0.847-2.473,1.696-4.956,2.55-7.447v-64.779l2.352-6.837l12.361-35.925l0.81-2.352h22.406c0.396-1.056,0.91-1.813,1.463-2.353
						c-0.001,0-0.001,0-0.001,0.001h-23.868c-1.004,0-1.897,0.638-2.224,1.587l-0.701,2.037l3.313-9.628
						c4.332-12.59,16.189-21.05,29.504-21.05h116.977c10.215,0,19.383,4.837,25.405,13.088c4.39,6.013,5.612,15.743,5.757,16.656
						c-0.066-0.993-0.735-1.846-1.697-2.116c-1.398-0.392-2.612-0.575-3.82-0.575H758.36c-4.732,0-9.141,2.344-11.793,6.27
						c-1.591,2.355-2.431,5.105-2.431,7.954v216.36c0,0.922,0.539,1.76,1.379,2.142c0.312,0.142,0.644,0.21,0.973,0.21
						c0.545,0,1.081-0.195,1.513-0.559c-5.555,4.835-12.726,7.738-20.436,7.738h-2.601c1.299,0,2.352-1.053,2.352-2.352V805.934
						c0-2.85-0.84-5.602-2.431-7.955c-2.651-3.925-7.06-6.269-11.792-6.269h-32.371l-70.225,204.49l22.924-66.751v87.126
						l27.012,24.008l-5.883-5.229h73.016c14.818,0,28.003-9.401,32.833-23.409l70.6-204.765
						C838.773,784.626,822.019,761.128,798.163,761.128z M647.931,1029.472l-12.159-10.807v-96.067l44.142-128.535h33.178
						c4.098,0,7.71,2.076,9.843,5.234c1.281,1.895,2.028,4.179,2.028,6.637v223.538H647.931z M826.969,797.022
						c-0.122,2.757-0.595,5.525-1.531,8.24l-70.6,204.765c-1.307,3.79-3.409,7.117-5.997,9.958
						c-0.744,0.816-1.524,1.585-2.353,2.309v-216.36c0-2.458,0.748-4.742,2.028-6.637c2.134-3.158,5.747-5.234,9.844-5.234h65.449
						c1.111,0,2.165,0.201,3.185,0.487C827.029,795.371,827.006,796.196,826.969,797.022z"/>
				</g>
				<g>
					<g>
						<path style="fill:#BBABA7;" d="M667.502,1037.503c-0.754-0.185-1.459-0.351-1.649-0.395c2.57,0.684,3.79,4.713,2.722,9.055
							c-1.048,4.263-3.909,7.219-6.467,6.772l1.502,0.403c2.608,0.641,5.591-2.384,6.666-6.757
							C671.351,1042.208,670.108,1038.144,667.502,1037.503z"/>
					</g>
				</g>
				<g>
					<g>
						<path style="fill:#EFDDD8;" d="M663.83,1046.353c-0.278,0-0.558-0.099-0.781-0.297l-60.964-54.183
							c-0.485-0.432-0.53-1.176-0.098-1.661c0.429-0.487,1.176-0.526,1.661-0.099l60.963,54.184c0.485,0.432,0.53,1.176,0.099,1.661
							C664.477,1046.219,664.154,1046.353,663.83,1046.353z"/>
					</g>
				</g>
				<g>
					<g>
						<polygon style="fill:#3B454F;" points="610.496,996.199 681.177,790.383 678.689,790.383 608.59,994.505 						"/>
					</g>
					<g>
						<polygon style="fill:#3B454F;" points="607.761,996.918 605.542,1003.381 608.03,1003.381 609.668,998.612 						"/>
					</g>
				</g>
			</g>
		</g>
		<path style="fill:#D6D2CF;" d="M1166.4,794.063h-65.449c-6.556,0-11.871,5.315-11.871,11.871v237.48
			c0,6.556,5.315,11.871,11.871,11.871h65.449c6.557,0,11.872-5.315,11.872-11.871v-237.48
			C1178.272,799.378,1172.957,794.063,1166.4,794.063z M1175.92,1043.414c0,5.248-4.271,9.519-9.52,9.519h-65.449
			c-5.248,0-9.518-4.271-9.518-9.519v-237.48c0-5.248,4.27-9.518,9.518-9.518h65.449c5.249,0,9.52,4.27,9.52,9.518V1043.414z"/>
		<path style="fill:#D6D2CF;" d="M1277.117,794.063h-65.448c-6.557,0-11.872,5.315-11.872,11.871v237.48
			c0,6.556,5.315,11.871,11.872,11.871h65.448c6.556,0,11.871-5.315,11.871-11.871v-237.48
			C1288.988,799.378,1283.673,794.063,1277.117,794.063z M1286.636,1043.414c0,5.248-4.27,9.519-9.519,9.519h-65.448
			c-5.249,0-9.52-4.271-9.52-9.519v-237.48c0-5.248,4.271-9.518,9.52-9.518h65.448c5.249,0,9.519,4.27,9.519,9.518V1043.414z"/>
		<g>
			<path style="fill:#D6D2CF;" d="M577.873,761.128H460.865c-14.826,0-28.017,9.411-32.841,23.43l-70.456,204.765
				c-7.759,22.549,8.994,46.03,32.841,46.03h31.625l8.437,7.499l0,0l-12.407-11.027h-27.656c-10.211,0-19.469-4.767-25.4-13.08
				c-5.931-8.312-7.427-18.618-4.104-28.273l70.457-204.765c4.332-12.59,16.189-21.05,29.504-21.05h117.008
				c10.211,0,19.469,4.768,25.4,13.08c5.93,8.312,7.427,18.618,4.104,28.273l-70.457,204.765
				c-4.332,12.591-16.189,21.05-29.504,21.05h-85.81l-37.362-33.206l58.382-178.525c3.793-13.471,15.019-23.297,28.479-25.543
				c1.924-0.321,3.892-0.487,5.892-0.487h32.535c2.57,0,5.019,0.521,7.246,1.463c6.682,2.826,11.371,9.442,11.371,17.153v207.925
				c0.843-0.874,1.617-1.815,2.352-2.79V812.679c0-8.446-5.027-16.03-12.807-19.319c-2.586-1.094-5.332-1.649-8.162-1.649h-32.535
				c-2.103,0-4.215,0.175-6.278,0.519c-9.914,1.654-18.559,7.254-24.342,15.125l-43.113,125.54l-20.936,64.02l-0.804-0.715l0,0
				l49.935,44.382l0,0l-5.882-5.229h81.84c14.826,0,28.017-9.411,32.841-23.43l70.456-204.765
				C618.473,784.609,601.72,761.128,577.873,761.128z"/>
			<path style="fill:#D6D2CF;" d="M383.447,1001.057l24.04,21.366l-25.957-23.07l-8.004,24.475c0.67,0.487,1.282,1.062,1.988,1.49
				L383.447,1001.057z"/>
		</g>
	</g>
	<g>
		<g>
			<rect x="642.58" y="292.211" style="fill:#D89529;" width="1134.96" height="297.72"/>
		</g>
		<g>
			<polygon style="fill:#F8AC36;" points="1777.54,292.124 728.448,292.211 727.585,589.927 1777.54,589.85 			"/>
		</g>
		<g>
			<rect x="664.536" y="589.931" style="fill:#212136;" width="39.715" height="81.666"/>
		</g>
		<g>
			<rect x="695.383" y="589.931" style="fill:#131222;" width="8.868" height="81.666"/>
		</g>
		<g>
			<rect x="669.356" y="589.931" style="fill:#2F314C;" width="19.857" height="81.666"/>
		</g>
		<g>
			<rect x="1714.891" y="589.931" style="fill:#212136;" width="39.715" height="81.666"/>
		</g>
		<g>
			<rect x="1745.738" y="589.931" style="fill:#131222;" width="8.868" height="81.666"/>
		</g>
		<g>
			<rect x="1719.711" y="589.931" style="fill:#2F314C;" width="19.857" height="81.666"/>
		</g>
	</g>
</g>
</svg>
